# Blender v2.78 (sub 0) OBJ File: 'backWall2.blend'
# www.blender.org
mtllib backWallTex2.mtl
o Cube_Cube.001
v -2.425500 -1.727000 0.025000
v -2.425500 1.727000 0.025000
v -2.425500 -1.727000 -0.025000
v -2.425500 1.727000 -0.025000
v 2.425500 -1.727000 0.025000
v 2.425500 1.727000 0.025000
v 2.425500 -1.727000 -0.025000
v 2.425500 1.727000 -0.025000
vt 0.9999 0.0001
vt 0.9999 0.9999
vt 0.0001 0.9999
vt 0.0001 0.0001
vt 0.0000 0.0000
vt 0.0000 0.0000
vt 0.0000 0.0000
vt 0.0000 0.0000
vt 0.0000 0.0000
vt 0.0000 0.0000
vt 0.0000 0.0000
vt 0.0000 0.0000
vn 0.0000 0.0000 1.0000
vn 0.0000 -1.0000 0.0000
vn -1.0000 0.0000 0.0000
vn 0.0000 0.0000 -1.0000
vn 1.0000 0.0000 0.0000
vn 0.0000 1.0000 0.0000
usemtl Material.001
s off
f 5/1/1 6/2/1 2/3/1 1/4/1
f 3/5/2 7/6/2 5/7/2 1/8/2
usemtl Material.002
f 1/8/3 2/9/3 4/10/3 3/5/3
f 3/5/4 4/10/4 8/11/4 7/6/4
f 7/6/5 8/11/5 6/12/5 5/7/5
f 8/11/6 4/10/6 2/9/6 6/12/6
